<mxfile host="app.diagrams.net" modified="2023-04-28T11:03:23.731Z" agent="Mozilla/5.0 (Windows NT 10.0; Win64; x64) AppleWebKit/537.36 (KHTML, like Gecko) Chrome/112.0.0.0 Safari/537.36" version="21.1.8" etag="0Onkm-hAi1X_xXLdB3uI" type="github">
  <diagram name="第 1 页" id="syr3_XNMo-ZjbNKYzEvy">
    <mxGraphModel>
      <root>
        <mxCell id="0" />
        <mxCell id="1" parent="0" />
      </root>
    </mxGraphModel>
  </diagram>
</mxfile>
